[Header]
FileType HTR
DataType HTRS
FileVersion 1
NumSegments 64
NumFrames 4
DataFrameRate 24
EulerRotationOrder ZYX
CalibrationUnits mm
RotationUnits Degrees
GlobalAxisofGravity Y
BoneLengthAxis Y
ScaleFactor 1.0
[SegmentNames&Hierarchy]
Hips	GLOBAL
Spine	Hips
Spine1	Spine
Spine2	Spine1
Neck	Spine2
Head	Neck
LeftEye	Head
RightEye	Head
LeftShoulder	Spine2
LeftArm	LeftShoulder
LeftForeArm	LeftArm
LeftHand	LeftForeArm
LeftHandThumb1	LeftHand
LeftHandThumb2	LeftHandThumb1
LeftHandThumb3	LeftHandThumb2
LeftHandThumb4	LeftHandThumb3
LeftHandIndex1	LeftHand
LeftHandIndex2	LeftHandIndex1
LeftHandIndex3	LeftHandIndex2
LeftHandIndex4	LeftHandIndex3
LeftHandMiddle1	LeftHand
LeftHandMiddle2	LeftHandMiddle1
LeftHandMiddle3	LeftHandMiddle2
LeftHandMiddle4	LeftHandMiddle3
LeftHandRing1	LeftHand
LeftHandRing2	LeftHandRing1
LeftHandRing3	LeftHandRing2
LeftHandRing4	LeftHandRing3
LeftHandPinky1	LeftHand
LeftHandPinky2	LeftHandPinky1
LeftHandPinky3	LeftHandPinky2
LeftHandPinky4	LeftHandPinky3
RightShoulder	Spine2
RightArm	RightShoulder
RightForeArm	RightArm
RightHand	RightForeArm
RightHandPinky1	RightHand
RightHandPinky2	RightHandPinky1
RightHandPinky3	RightHandPinky2
RightHandPinky4	RightHandPinky3
RightHandRing1	RightHand
RightHandRing2	RightHandRing1
RightHandRing3	RightHandRing2
RightHandRing4	RightHandRing3
RightHandMiddle1	RightHand
RightHandMiddle2	RightHandMiddle1
RightHandMiddle3	RightHandMiddle2
RightHandMiddle4	RightHandMiddle3
RightHandIndex1	RightHand
RightHandIndex2	RightHandIndex1
RightHandIndex3	RightHandIndex2
RightHandIndex4	RightHandIndex3
RightHandThumb1	RightHand
RightHandThumb2	RightHandThumb1
RightHandThumb3	RightHandThumb2
RightHandThumb4	RightHandThumb3
LeftUpLeg	Hips
LeftLeg	LeftUpLeg
LeftFoot	LeftLeg
LeftToeBase	LeftFoot
RightUpLeg	Hips
RightLeg	RightUpLeg
RightFoot	RightLeg
RightToeBase	RightFoot
[BasePosition]
Hips	0	0	0	0	0	0	1
Spine	0	0	0	0	0	0	1
Spine1	0	0	0	0	0	0	1
Spine2	0	0	0	0	0	0	1
Neck	0	0	0	0	0	0	1
Head	0	0	0	0	0	0	1
LeftEye	0	0	0	0	0	0	1
RightEye	0	0	0	0	0	0	1
LeftShoulder	0	0	0	0	0	0	1
LeftArm	0	0	0	0	0	0	1
LeftForeArm	0	0	0	0	0	0	1
LeftHand	0	0	0	0	0	0	1
LeftHandThumb1	0	0	0	0	0	0	1
LeftHandThumb2	0	0	0	0	0	0	1
LeftHandThumb3	0	0	0	0	0	0	1
LeftHandThumb4	0	0	0	0	0	0	1
LeftHandIndex1	0	0	0	0	0	0	1
LeftHandIndex2	0	0	0	0	0	0	1
LeftHandIndex3	0	0	0	0	0	0	1
LeftHandIndex4	0	0	0	0	0	0	1
LeftHandMiddle1	0	0	0	0	0	0	1
LeftHandMiddle2	0	0	0	0	0	0	1
LeftHandMiddle3	0	0	0	0	0	0	1
LeftHandMiddle4	0	0	0	0	0	0	1
LeftHandRing1	0	0	0	0	0	0	1
LeftHandRing2	0	0	0	0	0	0	1
LeftHandRing3	0	0	0	0	0	0	1
LeftHandRing4	0	0	0	0	0	0	1
LeftHandPinky1	0	0	0	0	0	0	1
LeftHandPinky2	0	0	0	0	0	0	1
LeftHandPinky3	0	0	0	0	0	0	1
LeftHandPinky4	0	0	0	0	0	0	1
RightShoulder	0	0	0	0	0	0	1
RightArm	0	0	0	0	0	0	1
RightForeArm	0	0	0	0	0	0	1
RightHand	0	0	0	0	0	0	1
RightHandPinky1	0	0	0	0	0	0	1
RightHandPinky2	0	0	0	0	0	0	1
RightHandPinky3	0	0	0	0	0	0	1
RightHandPinky4	0	0	0	0	0	0	1
RightHandRing1	0	0	0	0	0	0	1
RightHandRing2	0	0	0	0	0	0	1
RightHandRing3	0	0	0	0	0	0	1
RightHandRing4	0	0	0	0	0	0	1
RightHandMiddle1	0	0	0	0	0	0	1
RightHandMiddle2	0	0	0	0	0	0	1
RightHandMiddle3	0	0	0	0	0	0	1
RightHandMiddle4	0	0	0	0	0	0	1
RightHandIndex1	0	0	0	0	0	0	1
RightHandIndex2	0	0	0	0	0	0	1
RightHandIndex3	0	0	0	0	0	0	1
RightHandIndex4	0	0	0	0	0	0	1
RightHandThumb1	0	0	0	0	0	0	1
RightHandThumb2	0	0	0	0	0	0	1
RightHandThumb3	0	0	0	0	0	0	1
RightHandThumb4	0	0	0	0	0	0	1
LeftUpLeg	0	0	0	0	0	0	1
LeftLeg	0	0	0	0	0	0	1
LeftFoot	0	0	0	0	0	0	1
LeftToeBase	0	0	0	0	0	0	1
RightUpLeg	0	0	0	0	0	0	1
RightLeg	0	0	0	0	0	0	1
RightFoot	0	0	0	0	0	0	1
RightToeBase	0	0	0	0	0	0	1
[Hips]
7	944.6807861	988.8394165	-42.36734772	-11.48162937	80.83253479	-19.04945374	1.0
8	1080.964111	970.8740234	-52.30038452	-4.523703098	81.45656586	-10.75062561	1.0
9	1211.653809	959.5014648	-59.36189651	9.328457832	82.19663239	2.730755329	1.0
10	1353.235962	964.46875	-58.00016022	13.12278748	80.57079315	5.795810699	1.0
[Spine]
7	0	101.8159943	1.315000057	5.184840202	1.437601566	4.293614388	1.0
8	0	101.8159943	1.315000057	6.722957134	-2.199487925	3.04866457	1.0
9	0	101.8159943	1.315000057	8.084156036	-4.854462147	1.217866778	1.0
10	0	101.8159943	1.315000057	8.380713463	-6.473824024	0.4552295208	1.0
[Spine1]
7	0	100.8349991	-10.00800037	1.624229193	0.6183347702	0.7111448646	1.0
8	0	100.8349991	-10.00800037	2.285010338	-0.612699151	0.5105732679	1.0
9	0	100.8349991	-10.00800037	2.865327358	-1.690010786	0.2339118272	1.0
10	0	100.8349991	-10.00800037	3.043497086	-2.518557072	0.3135820925	1.0
[Spine2]
7	0	91	-13.73399925	1.621021986	0.6360825896	0.702472806	1.0
8	0	91	-13.73399925	2.289841413	-0.587141037	0.5161780715	1.0
9	0	91	-13.73399925	2.880040884	-1.661515951	0.2532343864	1.0
10	0	91	-13.73399925	3.060855627	-2.495627642	0.3363904357	1.0
[Neck]
7	0	166.7169952	-25.16200066	1.273755789	-13.20761108	2.360797644	1.0
8	0	166.7169952	-25.16200066	-0.008836111985	-11.9502821	1.544400454	1.0
9	0	166.7169952	-25.16200066	-1.664485693	-11.10729504	0.7875004411	1.0
10	0	166.7169952	-25.16200066	-1.9033252	-10.27682018	0.1639196426	1.0
[Head]
7	0	96.17900085	16.84999847	-26.93962479	-53.24351501	25.31826591	1.0
8	0	96.17900085	16.84999847	-26.00863838	-49.53338623	25.37976646	1.0
9	0	96.17900085	16.84999847	-26.78945732	-47.26728821	27.0935173	1.0
10	0	96.17900085	16.84999847	-26.12058449	-45.0886879	25.87752914	1.0
[LeftEye]
7	30.6760006	64.09500122	92.83599854	0	0	0	1.0
8	30.6760006	64.09500122	92.83599854	0	0	0	1.0
9	30.6760006	64.09500122	92.83599854	0	0	0	1.0
10	30.6760006	64.09500122	92.83599854	0	0	0	1.0
[RightEye]
7	-30.6760006	64.09500122	92.83499908	0	0	0	1.0
8	-30.6760006	64.09500122	92.83499908	0	0	0	1.0
9	-30.6760006	64.09500122	92.83499908	0	0	0	1.0
10	-30.6760006	64.09500122	92.83499908	0	0	0	1.0
[LeftShoulder]
7	45.70400238	109.4599991	-26.28000069	5.898747444	-21.65141869	-11.31715107	1.0
8	45.70400238	109.4599991	-26.28000069	6.574802876	-21.54143333	-14.40916824	1.0
9	45.70400238	109.4599991	-26.28000069	7.82821846	-23.317379	-17.93485451	1.0
10	45.70400238	109.4599991	-26.28000069	9.305860519	-26.14174652	-21.1321106	1.0
[LeftArm]
7	105.923996	-5.24600029	-22.32099915	33.41656113	30.92090225	-19.82214737	1.0
8	105.923996	-5.24600029	-22.32099915	27.72553444	20.87719154	-25.31807137	1.0
9	105.923996	-5.24600029	-22.32099915	23.22985649	8.911693573	-27.8574543	1.0
10	105.923996	-5.24600029	-22.32099915	19.69268036	0.1411323994	-28.1058197	1.0
[LeftForeArm]
7	278.414978	-0.0009999999311	0	-5.711030553e-06	-45.86592102	-0.0001996224746	1.0
8	278.414978	-0.0009999999311	0	-3.362090865e-06	-39.09405899	-0.0002025385766	1.0
9	278.414978	-0.0009999999311	0	1.958339453e-05	-37.98665237	-0.0002347235422	1.0
10	278.414978	-0.0009999999311	0	-6.058457075e-06	-44.51330948	-0.0001925442775	1.0
[LeftHand]
7	283.2879944	0	0	18.49910355	-12.62158966	0.6376956701	1.0
8	283.2879944	0	0	24.00303841	-6.420900822	-1.647248387	1.0
9	283.2879944	0	0	26.26316643	-1.824976206	-3.417665482	1.0
10	283.2879944	0	0	26.85305786	1.768498778	-4.414776802	1.0
[LeftHandThumb1]
7	24.6609993	-15.75	26.8239994	1.609530091	-1.385389447	-4.416687965	1.0
8	24.6609993	-15.75	26.8239994	-0.5049763918	-5.556537628	-6.760068417	1.0
9	24.6609993	-15.75	26.8239994	-1.712321997	-8.086738586	-8.079135895	1.0
10	24.6609993	-15.75	26.8239994	-1.813648343	-8.383615494	-8.25934124	1.0
[LeftHandThumb2]
7	32.29800034	-18.64699936	18.64699936	3.722363234	17.4456501	18.62348175	1.0
8	32.29800034	-18.64699936	18.64699936	3.106200457	21.67831039	15.83350754	1.0
9	32.29800034	-18.64699936	18.64699936	2.834165335	25.56083679	13.74457359	1.0
10	32.29800034	-18.64699936	18.64699936	2.827361107	26.68767357	13.04026794	1.0
[LeftHandThumb3]
7	26.52600098	-15.31499958	15.31499958	1.278823614	2.386940241	-2.826793432	1.0
8	26.52600098	-15.31499958	15.31499958	1.954555511	7.621660709	-0.9713461995	1.0
9	26.52600098	-15.31499958	15.31499958	2.363854885	11.43487072	0.224739477	1.0
10	26.52600098	-15.31499958	15.31499958	2.323469639	12.87410545	1.11200285	1.0
[LeftHandThumb4]
7	19.54599953	-11.28499985	11.28499985	0	0	0	1.0
8	19.54599953	-11.28499985	11.28499985	0	0	0	1.0
9	19.54599953	-11.28499985	11.28499985	0	0	0	1.0
10	19.54599953	-11.28499985	11.28499985	0	0	0	1.0
[LeftHandIndex1]
7	91.09299469	-5.170999527	22.60099792	0.6237414479	-2.060122013	1.386198997	1.0
8	91.09299469	-5.170999527	22.60099792	-0.2731857598	-3.311686516	-10.58648872	1.0
9	91.09299469	-5.170999527	22.60099792	-1.350758433	-4.657992363	-20.65039253	1.0
10	91.09299469	-5.170999527	22.60099792	-2.029577255	-6.312417984	-24.45471573	1.0
[LeftHandIndex2]
7	36.76399994	0	0	-0.2850794196	2.009536743	-12.35820675	1.0
8	36.76399994	0	0	-0.2986550033	2.046150684	-12.74199677	1.0
9	36.76399994	0	0	-0.3119055331	2.081157684	-13.10984325	1.0
10	36.76399994	0	0	-0.3292077184	2.125891685	-13.58135605	1.0
[LeftHandIndex3]
7	28.83100128	0	0	-0.07762506604	0.6066150069	-8.166968346	1.0
8	28.83100128	0	0	-0.08268266171	0.6411126852	-8.51365757	1.0
9	28.83100128	0	0	-0.08843000978	0.6786302924	-8.890939713	1.0
10	28.83100128	0	0	-0.09645798802	0.7285311818	-9.393544197	1.0
[LeftHandIndex4]
7	23.92700005	0	0	0	0	0	1.0
8	23.92700005	0	0	0	0	0	1.0
9	23.92700005	0	0	0	0	0	1.0
10	23.92700005	0	0	0	0	0	1.0
[LeftHandMiddle1]
7	95.33399963	0	0	-1.164067984	2.128768682	-13.61529636	1.0
8	95.33399963	0	0	-3.360146046	2.448503017	-30.86664963	1.0
9	95.33399963	0	0	-5.041993618	1.572271943	-43.12503052	1.0
10	95.33399963	0	0	-5.442925453	-0.2647042572	-46.12145615	1.0
[LeftHandMiddle2]
7	36.98199844	0	0	-0.7895604968	2.99362874	-23.06205177	1.0
8	36.98199844	0	0	-0.986638844	3.284943342	-26.53771782	1.0
9	36.98199844	0	0	-1.078235745	3.408359766	-28.05665588	1.0
10	36.98199844	0	0	-1.044194102	3.363280773	-27.49839783	1.0
[LeftHandMiddle3]
7	29.50900078	0	0	-0.1065479293	1.292149663	-10.27401638	1.0
8	29.50900078	0	0	-0.183647871	1.623552918	-13.69379902	1.0
9	29.50900078	0	0	-0.2237338126	1.767521858	-15.19592857	1.0
10	29.50900078	0	0	-0.2073634118	1.710493684	-14.59953976	1.0
[LeftHandMiddle4]
7	28.3390007	0	0	0	0	0	1.0
8	28.3390007	0	0	0	0	0	1.0
9	28.3390007	0	0	0	0	0	1.0
10	28.3390007	0	0	0	0	0	1.0
[LeftHandRing1]
7	91.04499817	-0.4390000105	-18.65100098	-2.311093807	9.541483879	-22.13867188	1.0
8	91.04499817	-0.4390000105	-18.65100098	-4.241280079	9.970166206	-36.62207031	1.0
9	91.04499817	-0.4390000105	-18.65100098	-5.710776806	9.429368019	-47.37432861	1.0
10	91.04499817	-0.4390000105	-18.65100098	-5.991380692	8.284290314	-49.78609467	1.0
[LeftHandRing2]
7	31.54000092	0	0	-0.3972962201	2.664084196	-23.93035316	1.0
8	31.54000092	0	0	-0.6933625937	3.29157114	-30.94079971	1.0
9	31.54000092	0	0	-0.9059742689	3.647152424	-35.12782669	1.0
10	31.54000092	0	0	-0.9320839643	3.687021017	-35.60933304	1.0
[LeftHandRing3]
7	29.37700081	0	0	-0.02673592232	1.598757267	-16.20710945	1.0
8	29.37700081	0	0	-0.1955610961	2.272618055	-23.19173813	1.0
9	29.37700081	0	0	-0.3349113464	2.662842512	-27.35835266	1.0
10	29.37700081	0	0	-0.3522279859	2.705775976	-27.82404518	1.0
[LeftHandRing4]
7	26.47500038	0	0	0	0	0	1.0
8	26.47500038	0	0	0	0	0	1.0
9	26.47500038	0	0	0	0	0	1.0
10	26.47500038	0	0	0	0	0	1.0
[LeftHandPinky1]
7	80.77799988	-4.887000084	-38.06099701	-2.830119133	12.60763264	-25.63535881	1.0
8	80.77799988	-4.887000084	-38.06099701	-5.930380344	10.41340256	-48.18165207	1.0
9	80.77799988	-4.887000084	-38.06099701	-7.959972858	7.761622906	-62.07146454	1.0
10	80.77799988	-4.887000084	-38.06099701	-7.934033394	5.605435371	-63.12492371	1.0
[LeftHandPinky2]
7	36	0	0	-1.154100776	2.969109058	-34.01517868	1.0
8	36	0	0	-1.975794315	3.843698263	-46.06391144	1.0
9	36	0	0	-2.592302322	4.306169987	-53.79983902	1.0
10	36	0	0	-2.722143173	4.388039112	-55.33991623	1.0
[LeftHandPinky3]
7	21.14200211	0	0	-0.08858694136	1.443830848	-5.894955158	1.0
8	21.14200211	0	0	-0.4273656607	2.573566437	-17.68277359	1.0
9	21.14200211	0	0	-0.7632892132	3.250713348	-25.23729134	1.0
10	21.14200211	0	0	-0.8397902846	3.378444433	-26.72505569	1.0
[LeftHandPinky4]
7	19.75699997	0	0	0	0	0	1.0
8	19.75699997	0	0	0	0	0	1.0
9	19.75699997	0	0	0	0	0	1.0
10	19.75699997	0	0	0	0	0	1.0
[RightShoulder]
7	-45.70000076	109.4620056	-26.28000069	3.376828432	0.06930404156	12.22301579	1.0
8	-45.70000076	109.4620056	-26.28000069	3.236360788	-1.121067882	12.0285244	1.0
9	-45.70000076	109.4620056	-26.28000069	2.846170902	-4.278868675	11.50734806	1.0
10	-45.70000076	109.4620056	-26.28000069	2.446374416	-7.571279049	11.89750671	1.0
[RightArm]
7	-105.9280014	-5.248000145	-22.32099915	13.27593899	0.3843331039	37.39749146	1.0
8	-105.9280014	-5.248000145	-22.32099915	18.90270233	-1.341425419	39.82584763	1.0
9	-105.9280014	-5.248000145	-22.32099915	23.63162994	-5.00105238	42.40167236	1.0
10	-105.9280014	-5.248000145	-22.32099915	27.8184433	-11.95447636	41.12163925	1.0
[RightForeArm]
7	-278.414978	0	0	6.103515625e-05	97.44715118	1.525878906e-05	1.0
8	-278.414978	0	0	-8.43930593e-06	82.79486847	-1.441845598e-05	1.0
9	-278.414978	0	0	-1.367073401e-05	70.97176361	4.772711009e-07	1.0
10	-278.414978	0	0	-5.140028861e-06	65.91133118	1.329851511e-05	1.0
[RightHand]
7	-283.2879944	0	0.0009999999311	37.04620743	10.91057587	-7.190407276	1.0
8	-283.2879944	0	0.0009999999311	34.60378265	14.03679085	-9.327214241	1.0
9	-283.2879944	0	0.0009999999311	35.91843033	14.78749084	-7.568218231	1.0
10	-283.2879944	0	0.0009999999311	39.16365051	12.68608475	-3.372761726	1.0
[RightHandPinky1]
7	-80.76699829	-4.885000229	-38.06000137	-3.850283861	-14.32689953	29.81857491	1.0
8	-80.76699829	-4.885000229	-38.06000137	-1.97137332	-14.80566597	16.9657135	1.0
9	-80.76699829	-4.885000229	-38.06000137	-1.493074536	-14.04128456	14.72612572	1.0
10	-80.76699829	-4.885000229	-38.06000137	-2.236265659	-14.03442287	20.21936798	1.0
[RightHandPinky2]
7	-36	0	0.0009999999311	-1.085934281	-2.876931429	32.88724136	1.0
8	-36	0	0.0009999999311	-0.6355039477	-2.148420811	24.30437279	1.0
9	-36	0	0.0009999999311	-0.5430309176	-1.96205914	22.2225914	1.0
10	-36	0	0.0009999999311	-0.7502626181	-2.358635664	26.70137024	1.0
[RightHandPinky3]
7	-21.14200211	0	0	-0.2490427196	1.541337371	6.393889904	1.0
8	-21.14200211	0	0	-0.1449371725	2.379028559	-2.024761438	1.0
9	-21.14200211	0	0	-0.138329342	2.582712173	-4.056097507	1.0
10	-21.14200211	0	0	-0.1619199514	2.140146971	0.3619090617	1.0
[RightHandPinky4]
7	-19.75699997	0	0	0	0	0	1.0
8	-19.75699997	0	0	0	0	0	1.0
9	-19.75699997	0	0	0	0	0	1.0
10	-19.75699997	0	0	0	0	0	1.0
[RightHandRing1]
7	-91.03599548	-0.4390000105	-18.65100098	-2.725539684	-10.62620544	24.99848747	1.0
8	-91.03599548	-0.4390000105	-18.65100098	-1.638969302	-10.30940437	16.29457092	1.0
9	-91.03599548	-0.4390000105	-18.65100098	-1.56712079	-9.979125977	15.81438446	1.0
10	-91.03599548	-0.4390000105	-18.65100098	-2.210818768	-10.03324986	21.13592911	1.0
[RightHandRing2]
7	-31.54000092	0	0	-0.3892749846	-2.643723011	23.71287537	1.0
8	-31.54000092	0	0	-0.2349322885	-2.199234724	18.96292496	1.0
9	-31.54000092	0	0	-0.1936443448	-2.055388212	17.45307159	1.0
10	-31.54000092	0	0	-0.2566595972	-2.269685745	19.70679855	1.0
[RightHandRing3]
7	-29.37700081	0	0	-0.07780456543	0.416305095	14.483181	1.0
8	-29.37700081	0	0	-0.02471572161	0.8836954236	9.758955956	1.0
9	-29.37700081	0	0	-0.01590579748	1.033481121	8.252248764	1.0
10	-29.37700081	0	0	-0.03043418564	0.8107943535	10.49312782	1.0
[RightHandRing4]
7	-26.47500038	0	0	0	0	0	1.0
8	-26.47500038	0	0	0	0	0	1.0
9	-26.47500038	0	0	0	0	0	1.0
10	-26.47500038	0	0	0	0	0	1.0
[RightHandMiddle1]
7	-95.32500458	0	0	-1.277471662	-4.376697063	14.26575661	1.0
8	-95.32500458	0	0	-0.2798554599	-4.08881712	5.286025524	1.0
9	-95.32500458	0	0	-0.3960537016	-3.731396437	6.448901176	1.0
10	-95.32500458	0	0	-1.166180134	-3.892124891	13.37101173	1.0
[RightHandMiddle2]
7	-36.98199844	0	0	-0.7916671038	-2.996731758	23.10206795	1.0
8	-36.98199844	0	0	-0.6677812338	-2.792108536	20.73892593	1.0
9	-36.98199844	0	0	-0.6309464574	-2.727392673	20.00345039	1.0
10	-36.98199844	0	0	-0.7040146589	-2.853971481	21.4471035	1.0
[RightHandMiddle3]
7	-29.50900078	0	0	-0.1987045258	-1.487513065	13.90456581	1.0
8	-29.50900078	0	0	-0.1426332742	-1.259879351	11.54815292	1.0
9	-29.50900078	0	0	-0.1271127313	-1.188627839	10.81532574	1.0
10	-29.50900078	0	0	-0.1585078835	-1.328569412	12.25662041	1.0
[RightHandMiddle4]
7	-28.3390007	0	0.0009999999311	0	0	0	1.0
8	-28.3390007	0	0.0009999999311	0	0	0	1.0
9	-28.3390007	0	0.0009999999311	0	0	0	1.0
10	-28.3390007	0	0.0009999999311	0	0	0	1.0
[RightHandIndex1]
7	-91.08300018	-5.167999744	22.60099792	0.1345567703	0.6287779808	0.9596483111	1.0
8	-91.08300018	-5.167999744	22.60099792	0.7204376459	-0.1681601405	-5.590807915	1.0
9	-91.08300018	-5.167999744	22.60099792	0.7199647427	-0.05969468132	-5.489490032	1.0
10	-91.08300018	-5.167999744	22.60099792	0.2777724564	0.2015943676	-0.5836988688	1.0
[RightHandIndex2]
7	-36.76399994	0	0	-0.2270250916	-1.843641758	10.63219833	1.0
8	-36.76399994	0	0	-0.1944085807	-1.742698431	9.589655876	1.0
9	-36.76399994	0	0	-0.1817256063	-1.701672435	9.167649269	1.0
10	-36.76399994	0	0	-0.1994589269	-1.758739829	9.754945755	1.0
[RightHandIndex3]
7	-28.83100128	0	0	-0.1600815654	0.2126341313	10.0825634	1.0
8	-28.83100128	0	0	-0.1428332627	0.3149920702	9.050573349	1.0
9	-28.83100128	0	0	-0.1363857687	0.3564194441	8.633739471	1.0
10	-28.83100128	0	0	-0.1455605328	0.2980385423	9.221208572	1.0
[RightHandIndex4]
7	-23.92700005	0	0	0	0	0	1.0
8	-23.92700005	0	0	0	0	0	1.0
9	-23.92700005	0	0	0	0	0	1.0
10	-23.92700005	0	0	0	0	0	1.0
[RightHandThumb1]
7	-24.64799881	-15.72700024	26.82600021	2.409013271	1.724675298	4.95934248	1.0
8	-24.64799881	-15.72700024	26.82600021	4.09450388	-0.4041908681	3.388758898	1.0
9	-24.64799881	-15.72700024	26.82600021	2.593042374	-2.798406601	1.801507592	1.0
10	-24.64799881	-15.72700024	26.82600021	-1.326845407	-7.673051357	-1.56797564	1.0
[RightHandThumb2]
7	-32.29800034	-18.64699936	18.64699936	2.493484735	-19.44939232	-12.78369331	1.0
8	-32.29800034	-18.64699936	18.64699936	2.916759968	-15.71731091	-13.25294113	1.0
9	-32.29800034	-18.64699936	18.64699936	3.770269156	-12.9196682	-12.46002579	1.0
10	-32.29800034	-18.64699936	18.64699936	5.108868122	-10.65077209	-8.658612251	1.0
[RightHandThumb3]
7	-26.52600098	-15.31399918	15.31399918	1.00264132	-5.03975153	1.101095796	1.0
8	-26.52600098	-15.31399918	15.31399918	0.4641629457	-2.212816477	1.35406208	1.0
9	-26.52600098	-15.31399918	15.31399918	0.1477360129	-0.6134911776	0.7414541841	1.0
10	-26.52600098	-15.31399918	15.31399918	0.2605164945	-1.192113996	-0.7063264847	1.0
[RightHandThumb4]
7	-19.54599953	-11.28499985	11.28499985	0	0	0	1.0
8	-19.54599953	-11.28499985	11.28499985	0	0	0	1.0
9	-19.54599953	-11.28499985	11.28499985	0	0	0	1.0
10	-19.54599953	-11.28499985	11.28499985	0	0	0	1.0
[LeftUpLeg]
7	82.07800293	-67.51699829	-15.99599934	-38.09906769	2.258685589	1.710003614	1.0
8	82.07800293	-67.51699829	-15.99599934	-33.33615875	0.5265825987	-1.066496849	1.0
9	82.07800293	-67.51699829	-15.99599934	-26.03824234	-1.666936159	-4.902943611	1.0
10	82.07800293	-67.51699829	-15.99599934	-11.96438694	0.7227086425	-7.384912968	1.0
[LeftLeg]
7	0	-443.7049866	2.845999956	32.8991127	0.6010428667	2.17658329	1.0
8	0	-443.7049866	2.845999956	41.54002762	2.553708792	3.580919981	1.0
9	0	-443.7049866	2.845999956	43.96003342	2.899171114	4.678103924	1.0
10	0	-443.7049866	2.845999956	33.20351791	2.681365967	3.955467701	1.0
[LeftFoot]
7	0	-444.2789917	-29.8219986	-6.325436115	0.6073340178	-5.441852093	1.0
8	0	-444.2789917	-29.8219986	-14.37146187	0.8646843433	0.3697578013	1.0
9	0	-444.2789917	-29.8219986	-24.54087448	1.644494891	0.6183139682	1.0
10	0	-444.2789917	-29.8219986	-28.91774559	2.996838808	1.247599602	1.0
[LeftToeBase]
7	0	-87.28699493	107.1060028	-1.440110207	-2.80125405e-05	-3.262040309e-06	1.0
8	0	-87.28699493	107.1060028	-0.893553853	4.326543421e-05	-5.990834779e-06	1.0
9	0	-87.28699493	107.1060028	-2.938154697	5.140440408e-06	-2.080608738e-06	1.0
10	0	-87.28699493	107.1060028	-4.3197155	-1.934960164e-05	1.555391918e-06	1.0
[RightUpLeg]
7	-82.07800293	-67.51699829	-15.99599934	2.768580198	-2.611789942	-0.8967406154	1.0
8	-82.07800293	-67.51699829	-15.99599934	-10.55807114	-2.587609768	-5.003612518	1.0
9	-82.07800293	-67.51699829	-15.99599934	-27.8344326	-4.482527256	-8.716591835	1.0
10	-82.07800293	-67.51699829	-15.99599934	-43.60559082	-4.325610161	-7.87506485	1.0
[RightLeg]
7	0	-443.7049866	2.861999989	64.65716553	5.157373905	-10.64906883	1.0
8	0	-443.7049866	2.861999989	88.79483032	5.550614357	-7.80527401	1.0
9	0	-443.7049866	2.861999989	103.8568115	3.785756826	-5.155745029	1.0
10	0	-443.7049866	2.861999989	104.5429459	1.796610475	-3.042443514	1.0
[RightFoot]
7	0	-444.2770081	-29.83799934	15.56084347	-10.8758707	9.512673378	1.0
8	0	-444.2770081	-29.83799934	13.04218674	-13.43784523	3.508891582	1.0
9	0	-444.2770081	-29.83799934	8.403230667	-10.12725544	-1.283921957	1.0
10	0	-444.2770081	-29.83799934	1.114040375	-7.227743626	-0.1551568806	1.0
[RightToeBase]
7	0	-87.28699493	107.1060028	-10.74336338	-2.611692935e-06	-1.150951084e-05	1.0
8	0	-87.28699493	107.1060028	-11.82085323	-3.437699661e-06	5.498218798e-06	1.0
9	0	-87.28699493	107.1060028	-9.615328789	-1.115920077e-05	-5.423009952e-06	1.0
10	0	-87.28699493	107.1060028	-5.813379765	-1.130074997e-05	-3.732179721e-06	1.0
[EndOfFile]
